<svg width="26" height="21" viewBox="0 0 26 21" fill="none" xmlns="http://www.w3.org/2000/svg">
<path fill-rule="evenodd" clip-rule="evenodd" d="M9.86207 19C1.74065 19 0 17.4998 0 10.5C0 3.50025 1.74065 2 9.86207 2C15.3032 2 17.8802 2.6734 18.9886 5.22288C20.4695 4.14053 21.8418 3.61087 23.0346 3.71214C23.7628 3.77396 24.386 4.07096 24.851 4.55915C25.3037 5.03449 25.5677 5.64845 25.688 6.30602C26.1025 8.57219 26.1041 12.117 25.6923 14.3801C25.5944 15.1712 25.3583 15.8815 24.9095 16.4146C24.4279 16.9866 23.7589 17.2844 22.9937 17.2994C22.2703 17.3135 21.5062 17.0764 20.7404 16.6894C20.207 16.4198 19.6433 16.0624 19.0529 15.623C17.9814 18.2996 15.4112 19 9.86207 19ZM19.525 13.7875C20.3072 14.4313 20.9959 14.892 21.5839 15.1892C22.2071 15.5042 22.6582 15.6056 22.9568 15.5998C23.2136 15.5947 23.3734 15.5141 23.5081 15.3541C23.6707 15.161 23.838 14.7953 23.9138 14.1627L23.9168 14.1375L23.9214 14.1125C24.302 12.0445 24.3022 8.67928 23.9212 6.59647C23.8423 6.16474 23.6888 5.87555 23.5202 5.69851C23.3638 5.53431 23.1616 5.42972 22.8747 5.40536C22.2469 5.35206 21.12 5.68822 19.4952 7.02684C19.659 7.99814 19.7241 9.14621 19.7241 10.5C19.7241 11.7685 19.667 12.8564 19.525 13.7875Z" fill="#E81447"/>
<rect x="2.34784" y="20.7685" width="3" height="24.1512" rx="1.5" transform="rotate(-141.5 2.34784 20.7685)" fill="#ABAFD1"/>
</svg>
